<?xml version="1.0" encoding="UTF-8" standalone="no"?>
<!DOCTYPE svg PUBLIC "-//W3C//DTD SVG 1.1//EN" "http://www.w3.org/Graphics/SVG/1.1/DTD/svg11.dtd">
<svg width="100%" height="100%" viewBox="0 0 927 754" version="1.1" xmlns="http://www.w3.org/2000/svg" xmlns:xlink="http://www.w3.org/1999/xlink" xml:space="preserve" xmlns:serif="http://www.serif.com/" style="fill-rule:evenodd;clip-rule:evenodd;stroke-linecap:round;stroke-linejoin:round;stroke-miterlimit:1.5;">
    <g transform="matrix(1,0,0,1,-66.9778,-157.035)">
        <g>
            <path d="M95.971,751.867C42.28,656.066 171.888,514.984 325.632,427.791C479.377,340.597 667.881,312.327 723.306,408.641C778.958,505.349 658.161,638.09 495.176,729.576C350.737,810.652 149.663,847.667 95.971,751.867Z" style="fill:none;stroke:rgb(172,223,233);stroke-width:32px;"/>
            <g transform="matrix(-0.0282199,-1.06318,1.05182,-0.0279183,35.6106,965.546)">
                <path d="M95.971,751.867C42.28,656.066 171.888,514.984 325.632,427.791C479.377,340.597 667.881,312.327 723.306,408.641C778.958,505.349 658.161,638.09 495.176,729.576C350.737,810.652 149.663,847.667 95.971,751.867Z" style="fill:none;stroke:rgb(13,118,178);stroke-width:22.69px;"/>
            </g>
            <g transform="matrix(-0.559345,-0.838264,0.828261,-0.552669,161.558,1159.2)">
                <path d="M95.971,751.867C42.28,656.066 171.888,514.984 325.632,427.791C479.377,340.597 667.881,312.327 723.306,408.641C778.958,505.349 658.161,638.09 495.176,729.576C350.737,810.652 149.663,847.667 95.971,751.867Z" style="fill:none;stroke:rgb(34,66,142);stroke-width:35.94px;"/>
            </g>
            <g transform="matrix(0.777164,-0.559122,0.531749,0.739117,131.979,380.919)">
                <path d="M95.971,751.867C42.28,656.066 171.888,514.984 325.632,427.791C479.377,340.597 667.881,312.327 723.306,408.641C778.958,505.349 658.161,638.09 495.176,729.576C350.737,810.652 149.663,847.667 95.971,751.867Z" style="fill:none;stroke:rgb(36,171,226);stroke-width:42.82px;"/>
            </g>
        </g>
    </g>
</svg>
